<svg width="15" height="26" viewBox="0 0 15 26" fill="none" xmlns="http://www.w3.org/2000/svg">
<path d="M7.44051 4.07231L11.5616 11.7415H3.32051L7.44051 4.07231ZM14.904 12.9225C14.9361 12.6631 14.8871 12.3998 14.7621 12.1682L8.66002 0.807605C8.38985 0.14776 7.6252 -0.171909 6.95235 0.09323C6.62082 0.224299 6.35724 0.481935 6.22417 0.807605L0.120005 12.1708C-0.215091 12.9726 0.175598 13.8891 0.99304 14.2178C1.12019 14.2687 1.25326 14.304 1.38893 14.3213H13.6002C14.3261 14.3213 14.9148 13.7445 14.9148 13.0327C14.9148 12.9936 14.9076 12.9607 14.904 12.9225Z" fill="url(#paint0_linear)"/>
<path d="M12.8451 17.557H10.0628C9.70258 17.5566 9.40992 17.8421 9.4089 18.1954V20.5185C9.4089 20.5185 9.40471 21.3952 9.19616 21.5652C8.98811 21.7352 9.01724 21.9359 8.46374 21.9359H6.11296C5.56069 21.9359 5.58977 21.7348 5.3806 21.5652C5.17102 21.3955 5.16801 20.5185 5.16801 20.5185V18.1968C5.1674 17.8433 4.87515 17.557 4.5145 17.557H1.7332C1.37377 17.5566 1.08152 17.8427 1.08091 18.1954V20.9248C1.08091 21.2785 1.37281 21.5652 1.7332 21.5658H4.05093C4.05093 21.5658 4.78329 21.6627 5.05208 22.0228C5.2005 22.3255 5.27201 22.6587 5.26028 22.9939V25.3072C5.25967 25.6603 5.55151 25.9464 5.91094 25.947H8.69387C9.05447 25.9476 9.34713 25.6609 9.34713 25.3076V22.6263C9.35952 22.4147 9.42068 22.2081 9.52667 22.0228C9.79663 21.6637 10.5284 21.5658 10.5284 21.5658H12.8451C13.2057 21.5658 13.4978 21.2791 13.4978 20.9254V18.1968C13.4984 17.8437 13.2067 17.5576 12.8465 17.557" fill="url(#paint1_linear)"/>
<defs>
<linearGradient id="paint0_linear" x1="15.0715" y1="21.3104" x2="2.11699" y2="19.5555" gradientUnits="userSpaceOnUse">
<stop stop-color="#8057F3"/>
<stop offset="1" stop-color="#2F2BD0"/>
</linearGradient>
<linearGradient id="paint1_linear" x1="15.0715" y1="21.3104" x2="2.11699" y2="19.5555" gradientUnits="userSpaceOnUse">
<stop stop-color="#8057F3"/>
<stop offset="1" stop-color="#2F2BD0"/>
</linearGradient>
</defs>
</svg>
