<svg width="48" height="48" viewBox="0 0 48 48" fill="none" xmlns="http://www.w3.org/2000/svg">
<rect width="48" height="48" rx="12" fill="url(#paint0_linear)"/>
<path d="M28.9375 16.5H20.9688C19.9825 16.5 19.0366 16.8951 18.3392 17.5983C17.6418 18.3016 17.25 19.2554 17.25 20.25C17.25 21.2446 17.6418 22.1984 18.3392 22.9016C19.0366 23.6049 19.9825 24 20.9688 24H26.2813C27.2675 24 28.2134 24.3951 28.9108 25.0983C29.6082 25.8016 30 26.7554 30 27.75C30 28.7446 29.6082 29.6984 28.9108 30.4017C28.2134 31.1049 27.2675 31.5 26.2813 31.5H17.25" stroke="white" stroke-width="2" stroke-linecap="round" stroke-linejoin="round"/>
<path d="M23.25 12V36" stroke="#D4CFF3" stroke-width="2" stroke-linecap="round" stroke-linejoin="round"/>
<defs>
<linearGradient id="paint0_linear" x1="48.5043" y1="39.4227" x2="8.28201" y2="29.9433" gradientUnits="userSpaceOnUse">
<stop stop-color="#8057F3"/>
<stop offset="1" stop-color="#2F2BD0"/>
</linearGradient>
</defs>
</svg>
