<svg width="126" height="28" viewBox="0 0 126 28" fill="none" xmlns="http://www.w3.org/2000/svg">
<path d="M45.0842 19.9936H42.5514C42.5009 19.9936 42.4606 19.9536 42.4606 19.9042V6.14541C42.4606 6.09588 42.5009 6.05586 42.5514 6.05586H45.0842C45.1347 6.05586 45.1755 6.09588 45.1755 6.14541V19.9042C45.1755 19.9536 45.1347 19.9936 45.0842 19.9936Z" fill="url(#paint0_linear)"/>
<path d="M34.5968 19.9936H32.1124C32.0619 19.9936 32.0211 19.9536 32.0211 19.9042V6.14541C32.0211 6.09588 32.0619 6.05586 32.1124 6.05586H34.5968C34.6473 6.05586 34.6881 6.09588 34.6881 6.14541V19.9042C34.6881 19.9536 34.6473 19.9936 34.5968 19.9936Z" fill="url(#paint1_linear)"/>
<path d="M114.266 5.90031L112.759 5.90331C112.427 5.90681 112.161 6.17345 112.164 6.49962C112.165 6.57616 112.181 6.6512 112.211 6.72174L117.102 18.9693C117.221 19.2859 117.312 19.5424 117.709 19.6296L119.48 19.6756C119.802 19.5585 120.007 18.8737 119.887 18.557L114.948 6.2615C114.827 5.94483 114.605 5.89131 114.266 5.90031Z" fill="url(#paint2_linear)"/>
<path d="M82.108 7.56918L83.9069 6.22097C84.0288 6.12943 84.2028 6.15244 84.2961 6.272C84.2971 6.273 84.2976 6.27301 84.2981 6.27451L93.28 18.0905C93.3712 18.2125 93.3473 18.3836 93.2264 18.4776L91.4265 19.8258C91.3041 19.9165 91.1296 19.8928 91.0373 19.7729C91.0368 19.7723 91.0363 19.7719 91.0358 19.7709L82.0529 7.95688C81.9616 7.83482 81.9856 7.66273 82.108 7.56918Z" fill="url(#paint3_linear)"/>
<path d="M34.4774 19.9317L32.6377 18.5798C32.5204 18.4968 32.4944 18.3368 32.5791 18.2223C32.5821 18.2188 32.5847 18.2148 32.5877 18.2117L42.5024 6.18846C42.5998 6.0739 42.7717 6.05389 42.8941 6.14243L44.7349 7.49414C44.8522 7.57918 44.8761 7.74077 44.7894 7.85533C44.7869 7.85883 44.7838 7.86233 44.7813 7.86534L34.8666 19.8862C34.7697 20.0001 34.5988 20.0197 34.4774 19.9317Z" fill="url(#paint4_linear)"/>
<path d="M54.8862 7.96836C51.4128 7.96836 49.9077 10.4941 49.9077 13.0765C49.9077 15.8305 51.6158 18.0721 54.8862 18.0721C58.1566 18.0721 59.806 15.6032 59.806 13.0195C59.806 10.4357 58.3591 7.96785 54.8862 7.96785V7.96836ZM54.828 20.4003C50.3137 20.4003 47.3315 17.4488 47.3315 13.0765C47.3315 8.90384 50.2851 5.64014 54.8862 5.64014C59.5454 5.64014 62.4098 8.73376 62.4098 12.9925C62.4098 17.2778 59.3144 20.4003 54.828 20.4003Z" fill="url(#paint5_linear)"/>
<path d="M71.9572 7.96836C68.4854 7.96836 66.9797 10.4941 66.9797 13.0765C66.9797 15.8305 68.6879 18.0721 71.9572 18.0721C75.2266 18.0721 76.8786 15.6032 76.8786 13.0195C76.8786 10.4357 75.4311 7.96785 71.9567 7.96785L71.9572 7.96836ZM71.9001 20.4003C67.3847 20.4003 64.404 17.4488 64.404 13.0765C64.404 8.90384 67.3561 5.64014 71.9572 5.64014C76.6175 5.64014 79.4818 8.73376 79.4818 12.9925C79.4818 17.2778 76.3854 20.4003 71.9001 20.4003Z" fill="url(#paint6_linear)"/>
<path d="M108.165 11.6014C108.165 9.50017 106.573 7.85381 103.94 7.85381C101.307 7.85381 99.5126 9.33108 99.2805 11.6014H108.165ZM103.94 20.3999C99.1648 20.3999 96.56 17.2774 96.56 12.9915C96.56 8.98941 99.2525 5.66767 103.968 5.66767C108.196 5.66767 110.625 8.2225 110.625 12.3957C110.625 12.6775 110.625 13.4453 110.595 13.729H99.1357C99.1648 16.1143 101.046 18.0724 104.171 18.0724C107.183 18.0724 108.571 17.1357 109.96 16.2564V18.726C108.17 19.8631 106.072 20.446 103.94 20.3999Z" fill="url(#paint7_linear)"/>
<path d="M123.858 5.91127L125.586 5.94629C126.142 5.97681 126.016 6.43004 125.898 6.74621L120.957 19.8262C120.822 20.1488 120.446 20.3044 120.116 20.1742L118.783 19.6896C118.446 19.577 118.264 19.2192 118.376 18.8876L123.146 6.26196C123.267 5.94529 123.502 5.89627 123.858 5.91127Z" fill="url(#paint8_linear)"/>
<path d="M120.036 19.554L118.83 18.9796C118.464 18.9796 118.49 19.6046 118.49 19.6046L117.646 21.7346C117.333 22.5546 116.925 23.336 116.429 24.0624C115.941 24.7378 115.129 25.114 114.287 25.0549C113.449 25.0578 112.619 24.8837 111.857 24.5441V26.8709C112.733 27.155 113.655 27.2801 114.577 27.2404C116.227 27.2404 117.444 26.7023 118.339 25.4815C118.988 24.513 119.522 23.474 119.93 22.3859L121.123 19.4449C120.763 19.5034 120.4 19.5399 120.036 19.554Z" fill="url(#paint9_linear)"/>
<path d="M84.2472 19.9936H81.7051C81.6551 19.9936 81.6133 19.9536 81.6133 19.9042V6.24846C81.6133 6.19943 81.6551 6.15941 81.7051 6.15941H84.2472C84.2982 6.15941 84.339 6.19943 84.339 6.24846V19.9042C84.339 19.9536 84.2982 19.9936 84.2472 19.9936Z" fill="url(#paint10_linear)"/>
<path d="M93.6778 19.9936H91.1353C91.0848 19.9936 91.044 19.9536 91.044 19.9042V6.24846C91.044 6.19943 91.0848 6.15941 91.1353 6.15941H93.6778C93.7283 6.15941 93.7691 6.19943 93.7691 6.24846V19.9042C93.7691 19.9536 93.7283 19.9936 93.6778 19.9936Z" fill="url(#paint11_linear)"/>
<path d="M24.3063 19.9936H21.8304C21.78 19.9936 21.7391 19.9536 21.7391 19.9042V11.899C21.7391 11.8499 21.78 11.8099 21.8304 11.8099H24.3063C24.3567 11.8099 24.3975 11.8499 24.3975 11.899V19.9042C24.3975 19.9536 24.3567 19.9936 24.3063 19.9936Z" fill="url(#paint12_linear)"/>
<path d="M7.44051 4.07231L11.5616 11.7415H3.32051L7.44051 4.07231ZM14.904 12.9225C14.9361 12.6631 14.8871 12.3998 14.7621 12.1682L8.66002 0.807605C8.38985 0.14776 7.6252 -0.171909 6.95235 0.09323C6.62082 0.224299 6.35724 0.481935 6.22417 0.807605L0.120005 12.1708C-0.215091 12.9726 0.175598 13.8891 0.99304 14.2178C1.12019 14.2687 1.25326 14.304 1.38893 14.3213H13.6002C14.3261 14.3213 14.9148 13.7445 14.9148 13.0327V13.0322C14.9148 12.9931 14.9076 12.9607 14.904 12.9225Z" fill="url(#paint13_linear)"/>
<path d="M12.8451 17.557H10.0628C9.70258 17.5566 9.40992 17.8421 9.4089 18.1954V20.5185C9.4089 20.5185 9.40471 21.3952 9.19616 21.5652C8.98811 21.7352 9.01724 21.9359 8.46374 21.9359H6.11296C5.56069 21.9359 5.58977 21.7348 5.3806 21.5652C5.17102 21.3955 5.16801 20.5185 5.16801 20.5185V18.1968C5.1674 17.8433 4.87515 17.557 4.5145 17.557H1.7332C1.37377 17.5566 1.08152 17.8427 1.08091 18.1954V20.9248C1.08091 21.2785 1.37281 21.5652 1.7332 21.5658H4.05093C4.05093 21.5658 4.78329 21.6627 5.05208 22.0228C5.2005 22.3255 5.27201 22.6587 5.26028 22.9939V25.3072C5.25967 25.6603 5.55151 25.9464 5.91094 25.947H8.69387C9.05447 25.9476 9.34713 25.6609 9.34713 25.3076V22.6263C9.35952 22.4147 9.42068 22.2081 9.52667 22.0228C9.79663 21.6637 10.5284 21.5658 10.5284 21.5658H12.8451C13.2057 21.5658 13.4978 21.2791 13.4978 20.9254V18.1968C13.4984 17.8437 13.2067 17.5576 12.8465 17.557" fill="url(#paint14_linear)"/>
<path d="M23.9551 19.9333L22.147 18.6031C22.0302 18.5187 22.0052 18.3571 22.092 18.242C22.0944 18.2395 22.0966 18.2365 22.0986 18.2334L32.0339 6.18846C32.1308 6.0749 32.3006 6.05439 32.4225 6.14193L34.2342 7.47213C34.3505 7.55617 34.376 7.71676 34.2903 7.83132C34.2877 7.83482 34.2852 7.83732 34.2826 7.84082L24.3474 19.8868C24.2499 20.0025 24.0776 20.0228 23.9551 19.9333Z" fill="url(#paint15_linear)"/>
<path d="M34.3402 7.81178C34.4989 7.62469 34.6886 7.74875 34.6886 7.89933V12.1601C34.6881 12.3111 34.5631 12.4333 34.4096 12.4333H32.2996C32.146 12.4333 32.0216 12.3111 32.0216 12.1601V10.5827" fill="url(#paint16_linear)"/>
<path d="M44.8027 7.81178C44.9628 7.62469 45.1515 7.74875 45.1515 7.89933V12.1601C45.151 12.3107 45.0266 12.4327 44.873 12.4333H42.7635C42.6095 12.4333 42.485 12.3111 42.484 12.1601V10.5827" fill="url(#paint17_linear)"/>
<path d="M25.0688 14.6268L24.3975 15.4403V19.8256L27.2328 16.3447L25.0688 14.6268Z" fill="url(#paint18_linear)"/>
<path d="M84.3389 7.58015C84.4593 7.01686 85.2437 7.53113 85.335 7.65019L87.9434 11.0566C88.0342 11.1845 88.0036 11.3602 87.874 11.4501L86.0868 12.77C85.9619 12.8665 85.7813 12.8464 85.6819 12.7248L84.3405 10.971" fill="url(#paint19_linear)"/>
<path d="M34.3402 7.81178C34.4989 7.62469 34.6886 7.74875 34.6886 7.89933V12.1601C34.6881 12.3111 34.5631 12.4333 34.4096 12.4333H32.2996C32.146 12.4333 32.0216 12.3111 32.0216 12.1601V10.5827" fill="url(#paint20_linear)"/>
<path d="M44.8027 7.81178C44.9628 7.62469 45.1515 7.74875 45.1515 7.89933V12.1601C45.151 12.3107 45.0266 12.4327 44.873 12.4333H42.7635C42.6095 12.4333 42.485 12.3111 42.484 12.1601V10.5827" fill="url(#paint21_linear)"/>
<path d="M25.0688 14.6268L24.3975 15.4403V19.8256L27.2328 16.3447L25.0688 14.6268Z" fill="url(#paint22_linear)"/>
<path d="M84.3389 7.58015C84.4593 7.01686 85.2437 7.53113 85.335 7.65019L87.9434 11.0566C88.0342 11.1845 88.0036 11.3602 87.874 11.4501L86.0868 12.77C85.9619 12.8665 85.7813 12.8464 85.6819 12.7248L84.3405 10.971" fill="url(#paint23_linear)"/>
<path d="M82.0285 27.8806C81.9948 27.8476 81.9785 27.8075 81.9785 27.7606V23.1801C81.9785 23.1287 81.9938 23.0867 82.0249 23.0537C82.056 23.021 82.0978 23.0046 82.1504 23.0046H85.3065C85.359 23.0046 85.4024 23.021 85.436 23.0537C85.4697 23.0867 85.486 23.1287 85.486 23.1801V23.645C85.486 23.6964 85.4697 23.7374 85.436 23.7679C85.4024 23.7986 85.359 23.8134 85.3065 23.8134H82.9465V25.0592H85.1489C85.2019 25.0592 85.2443 25.0746 85.2784 25.1047C85.3121 25.1352 85.3284 25.1766 85.3284 25.2282V25.664C85.3284 25.716 85.3121 25.7564 85.2784 25.7871C85.2443 25.8176 85.2019 25.8331 85.1489 25.8331H82.9465V27.1208H85.3641C85.4167 27.1208 85.4605 27.1372 85.4932 27.1697C85.5268 27.2027 85.5442 27.2447 85.5442 27.2969V27.7606C85.5442 27.8126 85.5268 27.8536 85.4932 27.8841C85.4605 27.9146 85.4167 27.9297 85.3641 27.9297H82.1504C82.1024 27.9297 82.0616 27.9132 82.0285 27.8806Z" fill="url(#paint24_linear)"/>
<path d="M91.2322 27.1206C91.6341 27.1206 91.9233 27.0327 92.1003 26.857C92.2773 26.6809 92.3701 26.3913 92.3803 25.988C92.3895 25.706 92.3941 25.5303 92.3941 25.4604C92.3941 25.3848 92.3895 25.2116 92.3803 24.9396C92.3701 24.5548 92.2712 24.2707 92.0825 24.0882C91.8932 23.905 91.5979 23.8134 91.1965 23.8134H90.307V27.1206H91.2322ZM89.3604 27.8806C89.3267 27.8476 89.3099 27.8081 89.3099 27.7606V23.1807C89.3099 23.1291 89.3252 23.0865 89.3563 23.0535C89.3874 23.021 89.4292 23.0046 89.4823 23.0046H91.2322C92.6379 23.0046 93.3555 23.6424 93.3841 24.9185C93.3938 25.1907 93.3989 25.3732 93.3989 25.4672C93.3989 25.5563 93.3938 25.7369 93.3841 26.0085C93.3652 26.6659 93.1862 27.1497 92.846 27.4618C92.5068 27.7735 91.9804 27.9297 91.2679 27.9297H89.4823C89.4343 27.9297 89.3935 27.913 89.3604 27.8806Z" fill="url(#paint25_linear)"/>
<path d="M97.7168 27.5148C97.3583 27.191 97.1787 26.7007 97.1787 26.0439V23.1805C97.1787 23.1289 97.1945 23.0863 97.2257 23.0539C97.2568 23.0214 97.2986 23.0044 97.3511 23.0044H98.004C98.057 23.0044 98.0978 23.0214 98.1294 23.0539C98.1606 23.0863 98.1758 23.1289 98.1758 23.1805V26.0439C98.1758 26.4197 98.2666 26.7019 98.4487 26.8918C98.6303 27.0819 98.8884 27.1771 99.2235 27.1771C99.5581 27.1771 99.8151 27.0819 99.9941 26.8918C100.174 26.7019 100.263 26.4197 100.263 26.0439V23.1805C100.263 23.1289 100.28 23.0863 100.314 23.0539C100.347 23.0214 100.39 23.0044 100.442 23.0044H101.089C101.141 23.0044 101.183 23.0214 101.214 23.0539C101.245 23.0863 101.261 23.1289 101.261 23.1805V26.0439C101.261 26.7007 101.082 27.191 100.726 27.5148C100.37 27.8384 99.8687 28 99.2235 28C98.5778 28 98.0754 27.8384 97.7168 27.5148Z" fill="url(#paint26_linear)"/>
<defs>
<linearGradient id="paint0_linear" x1="127.324" y1="22.9966" x2="74.8713" y2="-32.6312" gradientUnits="userSpaceOnUse">
<stop stop-color="#8057F3"/>
<stop offset="1" stop-color="#2F2BD0"/>
</linearGradient>
<linearGradient id="paint1_linear" x1="127.324" y1="22.9966" x2="74.8713" y2="-32.6312" gradientUnits="userSpaceOnUse">
<stop stop-color="#8057F3"/>
<stop offset="1" stop-color="#2F2BD0"/>
</linearGradient>
<linearGradient id="paint2_linear" x1="127.324" y1="22.9966" x2="74.8713" y2="-32.6312" gradientUnits="userSpaceOnUse">
<stop stop-color="#8057F3"/>
<stop offset="1" stop-color="#2F2BD0"/>
</linearGradient>
<linearGradient id="paint3_linear" x1="127.324" y1="22.9966" x2="74.8713" y2="-32.6312" gradientUnits="userSpaceOnUse">
<stop stop-color="#8057F3"/>
<stop offset="1" stop-color="#2F2BD0"/>
</linearGradient>
<linearGradient id="paint4_linear" x1="127.324" y1="22.9966" x2="74.8713" y2="-32.6312" gradientUnits="userSpaceOnUse">
<stop stop-color="#8057F3"/>
<stop offset="1" stop-color="#2F2BD0"/>
</linearGradient>
<linearGradient id="paint5_linear" x1="127.324" y1="22.9966" x2="74.8713" y2="-32.6312" gradientUnits="userSpaceOnUse">
<stop stop-color="#8057F3"/>
<stop offset="1" stop-color="#2F2BD0"/>
</linearGradient>
<linearGradient id="paint6_linear" x1="127.324" y1="22.9966" x2="74.8713" y2="-32.6312" gradientUnits="userSpaceOnUse">
<stop stop-color="#8057F3"/>
<stop offset="1" stop-color="#2F2BD0"/>
</linearGradient>
<linearGradient id="paint7_linear" x1="127.324" y1="22.9966" x2="74.8713" y2="-32.6312" gradientUnits="userSpaceOnUse">
<stop stop-color="#8057F3"/>
<stop offset="1" stop-color="#2F2BD0"/>
</linearGradient>
<linearGradient id="paint8_linear" x1="127.324" y1="22.9966" x2="74.8713" y2="-32.6312" gradientUnits="userSpaceOnUse">
<stop stop-color="#8057F3"/>
<stop offset="1" stop-color="#2F2BD0"/>
</linearGradient>
<linearGradient id="paint9_linear" x1="127.324" y1="22.9966" x2="74.8713" y2="-32.6312" gradientUnits="userSpaceOnUse">
<stop stop-color="#8057F3"/>
<stop offset="1" stop-color="#2F2BD0"/>
</linearGradient>
<linearGradient id="paint10_linear" x1="127.324" y1="22.9966" x2="74.8713" y2="-32.6312" gradientUnits="userSpaceOnUse">
<stop stop-color="#8057F3"/>
<stop offset="1" stop-color="#2F2BD0"/>
</linearGradient>
<linearGradient id="paint11_linear" x1="127.324" y1="22.9966" x2="74.8713" y2="-32.6312" gradientUnits="userSpaceOnUse">
<stop stop-color="#8057F3"/>
<stop offset="1" stop-color="#2F2BD0"/>
</linearGradient>
<linearGradient id="paint12_linear" x1="127.324" y1="22.9966" x2="74.8713" y2="-32.6312" gradientUnits="userSpaceOnUse">
<stop stop-color="#8057F3"/>
<stop offset="1" stop-color="#2F2BD0"/>
</linearGradient>
<linearGradient id="paint13_linear" x1="127.324" y1="22.9966" x2="74.8713" y2="-32.6312" gradientUnits="userSpaceOnUse">
<stop stop-color="#8057F3"/>
<stop offset="1" stop-color="#2F2BD0"/>
</linearGradient>
<linearGradient id="paint14_linear" x1="127.324" y1="22.9966" x2="74.8713" y2="-32.6312" gradientUnits="userSpaceOnUse">
<stop stop-color="#8057F3"/>
<stop offset="1" stop-color="#2F2BD0"/>
</linearGradient>
<linearGradient id="paint15_linear" x1="127.324" y1="22.9966" x2="74.8713" y2="-32.6312" gradientUnits="userSpaceOnUse">
<stop stop-color="#8057F3"/>
<stop offset="1" stop-color="#2F2BD0"/>
</linearGradient>
<linearGradient id="paint16_linear" x1="127.324" y1="22.9966" x2="74.8713" y2="-32.6312" gradientUnits="userSpaceOnUse">
<stop stop-color="#8057F3"/>
<stop offset="1" stop-color="#2F2BD0"/>
</linearGradient>
<linearGradient id="paint17_linear" x1="127.324" y1="22.9966" x2="74.8713" y2="-32.6312" gradientUnits="userSpaceOnUse">
<stop stop-color="#8057F3"/>
<stop offset="1" stop-color="#2F2BD0"/>
</linearGradient>
<linearGradient id="paint18_linear" x1="127.324" y1="22.9966" x2="74.8713" y2="-32.6312" gradientUnits="userSpaceOnUse">
<stop stop-color="#8057F3"/>
<stop offset="1" stop-color="#2F2BD0"/>
</linearGradient>
<linearGradient id="paint19_linear" x1="127.324" y1="22.9966" x2="74.8713" y2="-32.6312" gradientUnits="userSpaceOnUse">
<stop stop-color="#8057F3"/>
<stop offset="1" stop-color="#2F2BD0"/>
</linearGradient>
<linearGradient id="paint20_linear" x1="127.324" y1="22.9966" x2="74.8713" y2="-32.6312" gradientUnits="userSpaceOnUse">
<stop stop-color="#8057F3"/>
<stop offset="1" stop-color="#2F2BD0"/>
</linearGradient>
<linearGradient id="paint21_linear" x1="127.324" y1="22.9966" x2="74.8713" y2="-32.6312" gradientUnits="userSpaceOnUse">
<stop stop-color="#8057F3"/>
<stop offset="1" stop-color="#2F2BD0"/>
</linearGradient>
<linearGradient id="paint22_linear" x1="127.324" y1="22.9966" x2="74.8713" y2="-32.6312" gradientUnits="userSpaceOnUse">
<stop stop-color="#8057F3"/>
<stop offset="1" stop-color="#2F2BD0"/>
</linearGradient>
<linearGradient id="paint23_linear" x1="127.324" y1="22.9966" x2="74.8713" y2="-32.6312" gradientUnits="userSpaceOnUse">
<stop stop-color="#8057F3"/>
<stop offset="1" stop-color="#2F2BD0"/>
</linearGradient>
<linearGradient id="paint24_linear" x1="127.324" y1="22.9966" x2="74.8713" y2="-32.6312" gradientUnits="userSpaceOnUse">
<stop stop-color="#8057F3"/>
<stop offset="1" stop-color="#2F2BD0"/>
</linearGradient>
<linearGradient id="paint25_linear" x1="127.324" y1="22.9966" x2="74.8713" y2="-32.6312" gradientUnits="userSpaceOnUse">
<stop stop-color="#8057F3"/>
<stop offset="1" stop-color="#2F2BD0"/>
</linearGradient>
<linearGradient id="paint26_linear" x1="127.324" y1="22.9966" x2="74.8713" y2="-32.6312" gradientUnits="userSpaceOnUse">
<stop stop-color="#8057F3"/>
<stop offset="1" stop-color="#2F2BD0"/>
</linearGradient>
</defs>
</svg>
